<?xml version="1.0" encoding="utf-8"?>
<!-- Generator: Adobe Illustrator 16.0.3, SVG Export Plug-In . SVG Version: 6.00 Build 0)  -->
<!DOCTYPE svg PUBLIC "-//W3C//DTD SVG 1.1//EN" "http://www.w3.org/Graphics/SVG/1.1/DTD/svg11.dtd">
<svg version="1.1" id="Layer_1" xmlns="http://www.w3.org/2000/svg" xmlns:xlink="http://www.w3.org/1999/xlink" x="0px" y="0px"
	 width="997.485px" height="190.688px" viewBox="108.266 302.158 997.485 190.688"
	 enable-background="new 108.266 302.158 997.485 190.688" xml:space="preserve">
<polygon fill="#C1C1C0" points="320.351,303.476 279.342,490.267 321.568,490.267 362.584,303.476 "/>
<polygon fill="#C1C1C0" points="220.619,343.726 229.456,303.476 149.289,303.476 108.266,490.268 150.506,490.268 167.368,413.403 
	205.324,413.403 214.39,372.115 176.441,372.115 182.671,343.726 "/>
<polygon fill="#C1C1C0" points="246.501,450.919 278.876,303.476 236.651,303.476 195.635,490.267 271.573,490.267 280.206,450.919 
	"/>
<polygon fill="#C1C1C0" points="546.038,303.476 531.309,370.586 514.385,370.586 529.128,303.476 486.894,303.476 445.886,490.267 
	488.104,490.267 505.278,412.064 522.196,412.064 505.028,490.267 547.253,490.267 588.263,303.476 "/>
<polygon fill="#C1C1C0" points="595.35,303.476 585.906,346.462 608.497,346.462 576.933,490.267 619.15,490.267 650.729,346.462 
	671.788,346.462 681.22,303.476 "/>
<g>
	<g>
		<defs>
			<rect id="SVGID_1_" width="1224" height="792"/>
		</defs>
		<clipPath id="SVGID_2_">
			<use xlink:href="#SVGID_1_"  overflow="visible"/>
		</clipPath>
		<path clip-path="url(#SVGID_2_)" fill="#C1C1C0" d="M402.322,411.884h12.086l-6.817,31.118c-1,4.513-4.039,6.243-7.315,6.243
			c-18.134,0-12.769-46.979,2.852-81.486c9.309-20.559,26.172-23.953,35.928-23.112c8.241,0.721,16.829,2.454,24.052,4.476
			c2.648-12.065,6.485-29.544,9.46-43.069c-7.765-1.948-20.77-3.927-28.438-3.927c-31.509,0-54.277,12.445-71.687,37.44
			c-16.364,23.49-27.633,67.115-27.633,95.417c0,36.789,13.964,56.952,55.163,56.952c12.159,0,25.213-0.665,38.374-5.21
			l25.497-116.142h-52.454L402.322,411.884z"/>
	</g>
	<g>
		<defs>
			<rect id="SVGID_3_" width="1224" height="792"/>
		</defs>
		<clipPath id="SVGID_4_">
			<use xlink:href="#SVGID_3_"  overflow="visible"/>
		</clipPath>
		<polygon clip-path="url(#SVGID_4_)" fill="#C1C1C0" points="830.777,451.067 863.152,303.625 820.92,303.625 779.904,490.415 
			855.835,490.415 864.483,451.067 		"/>
	</g>
	<g>
		<defs>
			<rect id="SVGID_5_" width="1224" height="792"/>
		</defs>
		<clipPath id="SVGID_6_">
			<use xlink:href="#SVGID_5_"  overflow="visible"/>
		</clipPath>
		<path clip-path="url(#SVGID_6_)" fill="#C1C1C0" d="M965.02,303.476c-11.078,50.491-28.408,129.394-29.812,135.783
			c-2.075,9.458-6.845,11.049-13.176,11.049c-7.403,0-8.756-4.19-7.248-11.056c0.573-2.628,19.158-87.309,29.807-135.776h-41.76
			c-8.479,38.592-25.544,116.334-30.132,137.263c-6.188,28.176,1.21,37.744,8.661,43.914c9.235,7.646,21.924,8.193,30.639,8.193
			c20.263,0,30.693-3.556,39.795-10.255c9.093-6.702,19.246-15.937,24.111-38.516c3.458-16.077,21.039-95.989,30.861-140.601
			L965.02,303.476L965.02,303.476z"/>
	</g>
	<g>
		<defs>
			<rect id="SVGID_7_" width="1224" height="792"/>
		</defs>
		<clipPath id="SVGID_8_">
			<use xlink:href="#SVGID_7_"  overflow="visible"/>
		</clipPath>
		<path clip-path="url(#SVGID_8_)" fill="#C1C1C0" d="M1105.653,333.022c0-18.412-10.269-29.546-35.761-29.546h-14.349h-40.915
			l-41.002,186.791h36.644c26.296,0,36.884-0.601,48.976-7.999c22.646-13.87,31.593-49.927,31.593-69.729
			c0-14.729-7.325-22.574-9.973-25.359C1095.696,377.971,1105.653,355.51,1105.653,333.022 M1042.991,439.695
			c-1.776,6.165-6.499,11.001-13.013,11.001h-6.763l8.797-40.007h6.811c5.605,0,8.315,4.773,8.315,9.12
			C1047.14,423.852,1044.64,433.945,1042.991,439.695 M1046.229,371.332h-5.58l6.797-30.909h5.261c7.016,0,8.589,6.872,8.589,10.31
			C1061.294,360.144,1055.464,371.332,1046.229,371.332"/>
	</g>
	<g>
		<defs>
			<rect id="SVGID_9_" width="1224" height="792"/>
		</defs>
		<clipPath id="SVGID_10_">
			<use xlink:href="#SVGID_9_"  overflow="visible"/>
		</clipPath>
		<path clip-path="url(#SVGID_10_)" fill="#C1C1C0" d="M786.16,302.011c-15.465,0-37.733,2.672-55.312,30.495
			c-13.605,21.521-27.287,93.227-27.287,113.306c0,42.325,31.313,45.44,53.678,45.44c7.789,0,13.255-0.79,14.884-1.051l9.748-44.333
			c-4.324,0.257-13.566,0.691-20.72,0.078c-16.589-1.419-15-15.52-12.904-27.882c2.06-12.204,6.154-30.964,9.512-42.868
			c2.684-9.499,4.974-18.752,13.033-25.165c8.546-6.802,20.809-4.086,30.521-2.186l9.643-43.918
			C805.536,303.134,795.76,302.011,786.16,302.011"/>
	</g>
</g>
</svg>
